{
  "asset": {
    "generator": "Khronos glTF Blender I/O v3.4.50",
    "version": "2.0"
  },
  "scene": 0,
  "scenes": [
    {
      "name": "Scene",
      "nodes": [0, 1]
    }
  ],
  "nodes": [
    {
      "name": "BezierCircle",
      "rotation": [
        -0.019315071403980255, -0.001108765252865851, -0.0002949232002720237,
        0.9998127818107605
      ],
      "scale": [4.897856712341309, 4.897857189178467, 4.897856712341309],
      "translation": [
        4.603725910186768, 0.2662816047668457, -0.061058759689331055
      ]
    },
    {
      "mesh": 0,
      "name": "Text",
      "rotation": [0.7071068286895752, 0, 0, 0.7071068286895752]
    }
  ],
  "animations": [
    {
      "channels": [
        {
          "sampler": 0,
          "target": {
            "node": 0,
            "path": "translation"
          }
        },
        {
          "sampler": 1,
          "target": {
            "node": 0,
            "path": "rotation"
          }
        },
        {
          "sampler": 2,
          "target": {
            "node": 0,
            "path": "scale"
          }
        }
      ],
      "name": "BezierCircleAction",
      "samplers": [
        {
          "input": 4,
          "interpolation": "STEP",
          "output": 5
        },
        {
          "input": 4,
          "interpolation": "STEP",
          "output": 6
        },
        {
          "input": 4,
          "interpolation": "STEP",
          "output": 7
        }
      ]
    }
  ],
  "materials": [
    {
      "doubleSided": true,
      "name": "Material.001",
      "pbrMetallicRoughness": {
        "baseColorFactor": [
          0.800000011920929, 0.800000011920929, 0.800000011920929, 1
        ],
        "metallicFactor": 0.8073394298553467,
        "roughnessFactor": 0.4082568883895874
      }
    }
  ],
  "meshes": [
    {
      "name": "Text",
      "primitives": [
        {
          "attributes": {
            "POSITION": 0,
            "TEXCOORD_0": 1,
            "NORMAL": 2
          },
          "indices": 3,
          "material": 0
        }
      ]
    }
  ],
  "accessors": [
    {
      "bufferView": 0,
      "componentType": 5126,
      "count": 30346,
      "max": [9.253731727600098, 0.019999999552965164, 0.007462696172297001],
      "min": [0.2046908289194107, -0.019999999552965164, -0.753731369972229],
      "type": "VEC3"
    },
    {
      "bufferView": 1,
      "componentType": 5126,
      "count": 30346,
      "type": "VEC2"
    },
    {
      "bufferView": 2,
      "componentType": 5126,
      "count": 30346,
      "type": "VEC3"
    },
    {
      "bufferView": 3,
      "componentType": 5123,
      "count": 131028,
      "type": "SCALAR"
    },
    {
      "bufferView": 4,
      "componentType": 5126,
      "count": 1,
      "max": [7],
      "min": [7],
      "type": "SCALAR"
    },
    {
      "bufferView": 5,
      "componentType": 5126,
      "count": 1,
      "type": "VEC3"
    },
    {
      "bufferView": 6,
      "componentType": 5126,
      "count": 1,
      "type": "VEC4"
    },
    {
      "bufferView": 7,
      "componentType": 5126,
      "count": 1,
      "type": "VEC3"
    }
  ],
  "bufferViews": [
    {
      "buffer": 0,
      "byteLength": 364152,
      "byteOffset": 0,
      "target": 34962
    },
    {
      "buffer": 0,
      "byteLength": 242768,
      "byteOffset": 364152,
      "target": 34962
    },
    {
      "buffer": 0,
      "byteLength": 364152,
      "byteOffset": 606920,
      "target": 34962
    },
    {
      "buffer": 0,
      "byteLength": 262056,
      "byteOffset": 971072,
      "target": 34963
    },
    {
      "buffer": 0,
      "byteLength": 4,
      "byteOffset": 1233128
    },
    {
      "buffer": 0,
      "byteLength": 12,
      "byteOffset": 1233132
    },
    {
      "buffer": 0,
      "byteLength": 16,
      "byteOffset": 1233144
    },
    {
      "buffer": 0,
      "byteLength": 12,
      "byteOffset": 1233160
    }
  ],
  "buffers": [
    {
      "byteLength": 1233172,
      "uri": "data:application/octet-stream;base64,"
    }
  ]
}
